<?xml version="1.0" standalone="no"?>
<!DOCTYPE svg PUBLIC "-//W3C//DTD SVG 20010904//EN"
 "http://www.w3.org/TR/2001/REC-SVG-20010904/DTD/svg10.dtd">
<svg version="1.0" xmlns="http://www.w3.org/2000/svg"
 width="260.000000pt" height="260.000000pt" viewBox="0 0 260.000000 260.000000"
 preserveAspectRatio="xMidYMid meet">
<metadata>
Created by potrace 1.11, written by Peter Selinger 2001-2013
</metadata>
<g transform="translate(0.000000,260.000000) scale(0.100000,-0.100000)"
fill="#000000" stroke="none">
<path d="M619 2352 c-23 -48 -65 -135 -94 -194 l-53 -106 70 -31 69 -32 -22
-37 c-13 -20 -37 -60 -54 -87 -64 -102 -79 -84 133 -154 103 -35 196 -66 207
-71 11 -5 52 -18 90 -30 39 -12 79 -25 90 -30 11 -5 130 -45 265 -90 135 -45
254 -85 265 -89 11 -5 38 -14 60 -20 22 -7 49 -16 60 -21 11 -5 57 -21 103
-36 l82 -27 115 43 c63 23 113 45 110 49 -2 4 -34 20 -70 35 -36 16 -65 31
-65 35 0 3 31 22 70 41 38 19 70 37 70 40 0 3 -115 75 -255 160 -140 85 -288
176 -328 201 -79 50 -581 358 -609 374 -10 6 -74 45 -142 87 l-125 77 -42 -87z"/>
<path d="M582 1552 c-42 -48 -83 -93 -91 -102 -15 -15 -11 -17 81 -35 15 -3
85 -19 155 -36 71 -17 137 -32 148 -35 11 -2 31 -6 45 -9 14 -4 35 -8 48 -11
12 -2 62 -14 110 -25 99 -24 117 -28 152 -35 14 -3 43 -10 65 -15 22 -6 56
-14 75 -18 62 -15 274 -63 295 -68 11 -2 25 -5 30 -7 6 -1 54 -13 109 -25 l98
-23 72 22 c39 12 88 27 110 34 l39 12 -124 38 c-185 58 -297 93 -364 115 -59
20 -357 113 -425 133 -19 6 -44 14 -55 19 -11 4 -101 33 -200 64 -99 31 -206
64 -238 75 l-57 18 -78 -86z"/>
<path d="M588 1256 c-111 -88 -108 -83 -47 -95 30 -6 72 -13 94 -16 23 -3 52
-7 65 -10 13 -3 40 -7 60 -10 20 -3 45 -7 55 -9 11 -2 43 -7 70 -11 28 -5 52
-9 55 -10 3 0 28 -4 55 -9 59 -9 70 -10 200 -32 55 -8 111 -17 125 -20 14 -2
35 -5 47 -8 11 -2 43 -7 70 -11 26 -4 59 -9 73 -11 14 -3 81 -14 150 -25 69
-10 149 -24 179 -30 45 -9 70 -7 162 12 60 12 107 24 105 26 -2 3 -55 16 -118
30 -62 13 -117 26 -123 27 -40 11 -64 16 -90 20 -16 3 -167 37 -335 75 -168
39 -343 79 -390 90 -47 11 -134 31 -195 45 -212 49 -179 51 -267 -18z"/>
<path d="M582 971 c-73 -21 -87 -31 -46 -32 16 0 54 -2 85 -4 31 -2 103 -6
160 -10 57 -3 138 -8 179 -10 41 -3 111 -7 155 -10 44 -3 123 -7 175 -10 52
-3 118 -7 145 -10 28 -2 106 -7 175 -10 69 -4 136 -8 150 -11 58 -10 306 -1
318 11 3 3 -10 5 -29 6 -19 1 -45 2 -59 4 -14 1 -70 5 -125 9 -55 4 -111 9
-125 11 -14 2 -65 6 -115 10 -90 6 -185 13 -260 20 -22 2 -78 7 -125 10 -47 4
-101 8 -121 10 -19 2 -76 7 -125 10 -49 4 -102 8 -119 10 -156 15 -233 14
-293 -4z"/>
<path d="M1636 763 c-1 -1 -98 -4 -216 -7 -835 -21 -859 -22 -865 -28 -4 -4
37 -6 220 -10 53 -1 219 5 815 27 52 2 125 4 163 4 37 1 67 5 67 9 0 7 -177
12 -184 5z"/>
<path d="M1830 760 c0 -4 23 -7 50 -7 28 1 50 4 50 7 0 3 -22 6 -50 6 -27 1
-50 -2 -50 -6z"/>
<path d="M1828 645 c-2 -2 -43 -6 -93 -10 -49 -3 -106 -8 -125 -10 -19 -2 -73
-7 -120 -10 -47 -4 -98 -9 -115 -11 -16 -2 -64 -6 -105 -9 -41 -3 -93 -7 -115
-10 -22 -2 -69 -7 -105 -10 -36 -3 -92 -8 -125 -10 -33 -3 -89 -8 -125 -11
-114 -8 -294 -25 -298 -29 -6 -6 176 -44 194 -41 10 2 48 7 84 10 36 4 81 9
100 11 19 2 66 7 105 11 38 3 77 7 86 9 10 2 50 7 91 10 40 4 87 8 103 10 85
11 124 15 170 19 100 10 161 17 195 21 19 2 60 7 90 10 30 3 75 8 100 11 25 2
65 7 90 9 25 3 67 7 94 10 64 7 71 15 15 16 -24 0 -77 2 -116 3 -40 2 -74 2
-75 1z"/>
<path d="M1825 559 c-16 -5 -41 -10 -55 -13 -27 -4 -230 -43 -270 -51 -14 -3
-40 -8 -59 -11 -42 -7 -63 -11 -126 -24 -59 -12 -81 -16 -160 -31 -33 -6 -64
-12 -70 -13 -5 -2 -28 -6 -50 -10 -22 -4 -71 -14 -110 -21 -38 -8 -81 -16 -95
-18 -72 -13 -107 -20 -125 -24 -11 -3 -31 -6 -45 -8 -42 -7 -174 -35 -177 -39
-2 -2 15 -16 38 -32 23 -16 54 -38 69 -49 85 -62 50 -62 265 -5 207 54 429
111 465 119 19 5 152 39 295 76 143 37 269 69 280 72 11 2 29 6 40 9 61 13
188 53 175 54 -8 1 -22 3 -30 5 -20 3 -146 17 -190 20 -19 1 -48 -2 -65 -6z"/>
</g>
</svg>
